<svg xmlns="http://www.w3.org/2000/svg" xmlns:xlink="http://www.w3.org/1999/xlink" width="500" zoomAndPan="magnify" viewBox="0 0 375 374.999991" height="500" preserveAspectRatio="xMidYMid meet" version="1.0"><defs><g/><clipPath id="a3fff2a8a1"><path d="M 90.320312 161 L 118 161 L 118 188 L 90.320312 188 Z M 90.320312 161 " clip-rule="nonzero"/></clipPath><clipPath id="9843ec15ca"><path d="M 101 149.398438 L 108 149.398438 L 108 160 L 101 160 Z M 101 149.398438 " clip-rule="nonzero"/></clipPath><clipPath id="2a300ae0f6"><path d="M 11.085938 51.804688 L 123.585938 51.804688 L 123.585938 164.304688 L 11.085938 164.304688 Z M 11.085938 51.804688 " clip-rule="nonzero"/></clipPath><clipPath id="bd578db5be"><path d="M 28.335938 51.804688 L 106.335938 51.804688 C 110.914062 51.804688 115.300781 53.625 118.535156 56.859375 C 121.769531 60.09375 123.585938 64.480469 123.585938 69.054688 L 123.585938 147.054688 C 123.585938 151.632812 121.769531 156.019531 118.535156 159.253906 C 115.300781 162.488281 110.914062 164.304688 106.335938 164.304688 L 28.335938 164.304688 C 23.761719 164.304688 19.375 162.488281 16.140625 159.253906 C 12.90625 156.019531 11.085938 151.632812 11.085938 147.054688 L 11.085938 69.054688 C 11.085938 64.480469 12.90625 60.09375 16.140625 56.859375 C 19.375 53.625 23.761719 51.804688 28.335938 51.804688 Z M 28.335938 51.804688 " clip-rule="nonzero"/></clipPath><clipPath id="04bc815b33"><path d="M 0.0859375 0.804688 L 112.585938 0.804688 L 112.585938 113.304688 L 0.0859375 113.304688 Z M 0.0859375 0.804688 " clip-rule="nonzero"/></clipPath><clipPath id="b4315f7416"><path d="M 17.335938 0.804688 L 95.335938 0.804688 C 99.914062 0.804688 104.300781 2.625 107.535156 5.859375 C 110.769531 9.09375 112.585938 13.480469 112.585938 18.054688 L 112.585938 96.054688 C 112.585938 100.632812 110.769531 105.019531 107.535156 108.253906 C 104.300781 111.488281 99.914062 113.304688 95.335938 113.304688 L 17.335938 113.304688 C 12.761719 113.304688 8.375 111.488281 5.140625 108.253906 C 1.90625 105.019531 0.0859375 100.632812 0.0859375 96.054688 L 0.0859375 18.054688 C 0.0859375 13.480469 1.90625 9.09375 5.140625 5.859375 C 8.375 2.625 12.761719 0.804688 17.335938 0.804688 Z M 17.335938 0.804688 " clip-rule="nonzero"/></clipPath><clipPath id="1200487e7d"><rect x="0" width="113" y="0" height="114"/></clipPath><clipPath id="35159eee48"><path d="M 99 155 L 113 155 L 113 179 L 99 179 Z M 99 155 " clip-rule="nonzero"/></clipPath><clipPath id="27801e44ff"><path d="M 92.355469 174.519531 L 102.222656 152.640625 L 115.894531 158.808594 L 106.027344 180.6875 Z M 92.355469 174.519531 " clip-rule="nonzero"/></clipPath><clipPath id="d0a238f8ec"><path d="M 92.355469 174.519531 L 102.222656 152.640625 L 115.894531 158.808594 L 106.027344 180.6875 Z M 92.355469 174.519531 " clip-rule="nonzero"/></clipPath></defs><rect x="-37.5" width="450" fill="#ffffff" y="-37.499999" height="449.999989" fill-opacity="1"/><rect x="-37.5" width="450" fill="#010101" y="-37.499999" height="449.999989" fill-opacity="1"/><g fill="#ffffff" fill-opacity="1"><g transform="translate(123.876985, 189.697224)"><g><path d="M 12.203125 -18.609375 C 14.054688 -18.609375 15.695312 -18.191406 17.125 -17.359375 C 18.5625 -16.535156 19.6875 -15.398438 20.5 -13.953125 C 21.320312 -12.515625 21.734375 -10.878906 21.734375 -9.046875 C 21.734375 -7.210938 21.320312 -5.578125 20.5 -4.140625 C 19.6875 -2.703125 18.5625 -1.566406 17.125 -0.734375 C 15.695312 0.0859375 14.054688 0.5 12.203125 0.5 C 11.109375 0.5 10.078125 0.328125 9.109375 -0.015625 C 8.148438 -0.359375 7.289062 -0.859375 6.53125 -1.515625 L 5.96875 0 L 2.34375 0 L 2.34375 -24.640625 L 7.25 -24.640625 L 7.25 -17.140625 C 7.9375 -17.609375 8.695312 -17.96875 9.53125 -18.21875 C 10.375 -18.476562 11.265625 -18.609375 12.203125 -18.609375 Z M 11.796875 -4.125 C 12.765625 -4.125 13.613281 -4.335938 14.34375 -4.765625 C 15.082031 -5.191406 15.664062 -5.773438 16.09375 -6.515625 C 16.519531 -7.265625 16.734375 -8.109375 16.734375 -9.046875 C 16.734375 -9.992188 16.519531 -10.835938 16.09375 -11.578125 C 15.664062 -12.328125 15.082031 -12.921875 14.34375 -13.359375 C 13.613281 -13.796875 12.765625 -14.015625 11.796875 -14.015625 C 10.859375 -14.015625 10.015625 -13.796875 9.265625 -13.359375 C 8.515625 -12.921875 7.925781 -12.328125 7.5 -11.578125 C 7.082031 -10.835938 6.875 -9.992188 6.875 -9.046875 C 6.875 -8.109375 7.082031 -7.269531 7.5 -6.53125 C 7.925781 -5.800781 8.515625 -5.21875 9.265625 -4.78125 C 10.015625 -4.34375 10.859375 -4.125 11.796875 -4.125 Z M 11.796875 -4.125 "/></g></g></g><g fill="#ffffff" fill-opacity="1"><g transform="translate(145.762413, 189.697224)"><g><path d="M 17.140625 -18.140625 L 20.796875 -18.140625 L 20.796875 -0.03125 L 16.9375 -0.03125 L 16.53125 -1.640625 C 15.75 -0.972656 14.859375 -0.445312 13.859375 -0.0625 C 12.867188 0.3125 11.800781 0.5 10.65625 0.5 C 8.851562 0.5 7.234375 0.0820312 5.796875 -0.75 C 4.367188 -1.59375 3.238281 -2.734375 2.40625 -4.171875 C 1.582031 -5.617188 1.171875 -7.257812 1.171875 -9.09375 C 1.171875 -10.894531 1.582031 -12.515625 2.40625 -13.953125 C 3.238281 -15.398438 4.367188 -16.535156 5.796875 -17.359375 C 7.234375 -18.191406 8.851562 -18.609375 10.65625 -18.609375 C 11.820312 -18.609375 12.90625 -18.410156 13.90625 -18.015625 C 14.914062 -17.628906 15.8125 -17.085938 16.59375 -16.390625 Z M 11.0625 -4.125 C 12 -4.125 12.84375 -4.335938 13.59375 -4.765625 C 14.34375 -5.191406 14.929688 -5.773438 15.359375 -6.515625 C 15.785156 -7.265625 16 -8.125 16 -9.09375 C 16 -10.03125 15.785156 -10.867188 15.359375 -11.609375 C 14.929688 -12.359375 14.34375 -12.953125 13.59375 -13.390625 C 12.84375 -13.828125 12 -14.046875 11.0625 -14.046875 C 10.101562 -14.046875 9.253906 -13.828125 8.515625 -13.390625 C 7.773438 -12.953125 7.191406 -12.359375 6.765625 -11.609375 C 6.347656 -10.867188 6.140625 -10.03125 6.140625 -9.09375 C 6.140625 -8.125 6.347656 -7.269531 6.765625 -6.53125 C 7.191406 -5.800781 7.773438 -5.21875 8.515625 -4.78125 C 9.253906 -4.34375 10.101562 -4.125 11.0625 -4.125 Z M 11.0625 -4.125 "/></g></g></g><g fill="#ffffff" fill-opacity="1"><g transform="translate(167.882445, 189.697224)"><g/></g></g><g fill="#ffffff" fill-opacity="1"><g transform="translate(174.886927, 189.697224)"><g><path d="M 23.375 -18.109375 L 28.234375 -18.109375 L 22.296875 0 L 18.375 0 L 14.25 -9.359375 L 10.234375 0 L 6.296875 0 L 0.296875 -18.109375 L 5.296875 -18.109375 L 8.859375 -7.3125 L 13.578125 -17.96875 L 14.953125 -17.96875 L 19.8125 -7.28125 Z M 23.375 -18.109375 "/></g></g></g><g fill="#ffffff" fill-opacity="1"><g transform="translate(202.436494, 189.697224)"><g><path d="M 10.96875 0.5 C 9.082031 0.5 7.398438 0.0820312 5.921875 -0.75 C 4.453125 -1.59375 3.289062 -2.734375 2.4375 -4.171875 C 1.59375 -5.617188 1.171875 -7.242188 1.171875 -9.046875 C 1.171875 -10.878906 1.59375 -12.515625 2.4375 -13.953125 C 3.289062 -15.398438 4.453125 -16.535156 5.921875 -17.359375 C 7.398438 -18.191406 9.082031 -18.609375 10.96875 -18.609375 C 12.820312 -18.609375 14.484375 -18.191406 15.953125 -17.359375 C 17.429688 -16.535156 18.59375 -15.398438 19.4375 -13.953125 C 20.289062 -12.515625 20.71875 -10.878906 20.71875 -9.046875 C 20.71875 -7.242188 20.289062 -5.617188 19.4375 -4.171875 C 18.59375 -2.734375 17.429688 -1.59375 15.953125 -0.75 C 14.484375 0.0820312 12.820312 0.5 10.96875 0.5 Z M 10.96875 -4.09375 C 12.375 -4.09375 13.523438 -4.550781 14.421875 -5.46875 C 15.316406 -6.382812 15.765625 -7.578125 15.765625 -9.046875 C 15.765625 -10.523438 15.316406 -11.722656 14.421875 -12.640625 C 13.523438 -13.554688 12.375 -14.015625 10.96875 -14.015625 C 9.53125 -14.015625 8.363281 -13.554688 7.46875 -12.640625 C 6.582031 -11.722656 6.140625 -10.523438 6.140625 -9.046875 C 6.140625 -7.578125 6.582031 -6.382812 7.46875 -5.46875 C 8.363281 -4.550781 9.53125 -4.09375 10.96875 -4.09375 Z M 10.96875 -4.09375 "/></g></g></g><g fill="#ffffff" fill-opacity="1"><g transform="translate(223.316444, 189.697224)"><g><path d="M 11.609375 -18.203125 L 13.21875 -18.203125 L 13.21875 -13.578125 L 11.09375 -13.578125 C 9.707031 -13.578125 8.71875 -13.253906 8.125 -12.609375 C 7.539062 -11.960938 7.25 -10.898438 7.25 -9.421875 L 7.25 0 L 2.34375 0 L 2.34375 -18.109375 L 5.5 -18.109375 L 6.375 -15.890625 C 7.601562 -17.429688 9.347656 -18.203125 11.609375 -18.203125 Z M 11.609375 -18.203125 "/></g></g></g><g fill="#ffffff" fill-opacity="1"><g transform="translate(235.951556, 189.697224)"><g><path d="M 18.984375 0 L 13.046875 0 L 7.25 -8.65625 L 7.25 0 L 2.34375 0 L 2.34375 -24.640625 L 7.25 -24.640625 L 7.25 -10.0625 L 12.671875 -18.109375 L 18.3125 -18.109375 L 12.203125 -9.484375 Z M 18.984375 0 "/></g></g></g><g fill="#ffffff" fill-opacity="1"><g transform="translate(253.748067, 189.697224)"><g><path d="M 18.234375 0 L 12.703125 0 L 9.125 -6 L 5.4375 0 L 0.03125 0 L 6.203125 -9.28125 L 0.4375 -18.109375 L 5.96875 -18.109375 L 9.125 -12.875 L 12.46875 -18.109375 L 17.875 -18.109375 L 12 -9.5625 Z M 18.234375 0 "/></g></g></g><g fill="#ffffff" fill-opacity="1"><g transform="translate(271.008331, 189.697224)"><g><path d="M 12.234375 -18.609375 C 14.046875 -18.609375 15.664062 -18.191406 17.09375 -17.359375 C 18.53125 -16.535156 19.660156 -15.398438 20.484375 -13.953125 C 21.316406 -12.515625 21.734375 -10.878906 21.734375 -9.046875 C 21.734375 -7.210938 21.316406 -5.578125 20.484375 -4.140625 C 19.660156 -2.703125 18.53125 -1.5625 17.09375 -0.71875 C 15.664062 0.113281 14.046875 0.53125 12.234375 0.53125 C 11.296875 0.53125 10.398438 0.394531 9.546875 0.125 C 8.703125 -0.132812 7.9375 -0.5 7.25 -0.96875 L 7.25 6.53125 L 2.34375 6.53125 L 2.34375 -18.109375 L 5.59375 -18.109375 L 6.4375 -16.46875 C 7.195312 -17.132812 8.066406 -17.65625 9.046875 -18.03125 C 10.035156 -18.414062 11.097656 -18.609375 12.234375 -18.609375 Z M 11.84375 -4.09375 C 12.78125 -4.09375 13.617188 -4.3125 14.359375 -4.75 C 15.109375 -5.1875 15.695312 -5.773438 16.125 -6.515625 C 16.550781 -7.265625 16.765625 -8.109375 16.765625 -9.046875 C 16.765625 -9.992188 16.550781 -10.835938 16.125 -11.578125 C 15.695312 -12.328125 15.109375 -12.921875 14.359375 -13.359375 C 13.617188 -13.796875 12.78125 -14.015625 11.84375 -14.015625 C 10.875 -14.015625 10.019531 -13.796875 9.28125 -13.359375 C 8.550781 -12.921875 7.972656 -12.328125 7.546875 -11.578125 C 7.117188 -10.835938 6.90625 -9.992188 6.90625 -9.046875 C 6.90625 -8.109375 7.117188 -7.265625 7.546875 -6.515625 C 7.972656 -5.773438 8.550781 -5.1875 9.28125 -4.75 C 10.019531 -4.3125 10.875 -4.09375 11.84375 -4.09375 Z M 11.84375 -4.09375 "/></g></g></g><g clip-path="url(#a3fff2a8a1)"><path fill="#ffffff" d="M 115.402344 161.464844 C 115.191406 161.164062 114.796875 161.105469 114.496094 161.316406 C 114.195312 161.527344 114.132812 161.917969 114.34375 162.222656 C 115.824219 164.335938 116.640625 166.847656 116.640625 169.445312 C 116.640625 173.855469 114.375 177.875 110.597656 180.140625 C 110.417969 180.261719 110.296875 180.476562 110.296875 180.6875 L 110.296875 184.222656 C 110.296875 185.550781 109.207031 186.609375 107.90625 186.609375 L 100.351562 186.609375 C 99.023438 186.609375 97.964844 185.523438 97.964844 184.222656 L 97.964844 180.6875 C 97.964844 180.445312 97.84375 180.261719 97.664062 180.140625 C 93.886719 177.847656 91.621094 173.855469 91.621094 169.414062 C 91.621094 166.816406 92.40625 164.335938 93.917969 162.191406 C 94.128906 161.890625 94.066406 161.496094 93.765625 161.285156 C 93.460938 161.074219 93.070312 161.132812 92.859375 161.4375 C 91.195312 163.792969 90.320312 166.542969 90.320312 169.382812 C 90.320312 174.128906 92.675781 178.449219 96.667969 181.019531 L 96.667969 184.191406 C 96.667969 186.214844 98.328125 187.878906 100.351562 187.878906 L 107.90625 187.878906 C 109.933594 187.878906 111.59375 186.214844 111.59375 184.191406 L 111.59375 181.019531 C 115.582031 178.449219 117.941406 174.128906 117.941406 169.382812 C 117.910156 166.574219 117.035156 163.792969 115.402344 161.464844 Z M 115.402344 161.464844 " fill-opacity="1" fill-rule="nonzero"/></g><path fill="#ffffff" d="M 109.027344 178.300781 C 109.148438 178.300781 109.269531 178.269531 109.359375 178.207031 C 112.441406 176.335938 114.253906 173.101562 114.253906 169.503906 C 114.253906 167.390625 113.621094 165.363281 112.410156 163.640625 C 112.199219 163.339844 111.804688 163.28125 111.503906 163.492188 C 111.203125 163.703125 111.140625 164.097656 111.351562 164.398438 C 112.410156 165.910156 112.984375 167.660156 112.984375 169.503906 C 112.984375 172.617188 111.382812 175.457031 108.695312 177.089844 C 108.390625 177.273438 108.300781 177.664062 108.480469 177.996094 C 108.601562 178.179688 108.816406 178.300781 109.027344 178.300781 Z M 109.027344 178.300781 " fill-opacity="1" fill-rule="nonzero"/><path fill="#ffffff" d="M 98.84375 178.207031 C 98.933594 178.269531 99.054688 178.300781 99.175781 178.300781 C 99.386719 178.300781 99.597656 178.179688 99.71875 177.996094 C 99.898438 177.695312 99.808594 177.300781 99.507812 177.089844 C 96.816406 175.457031 95.214844 172.617188 95.214844 169.503906 C 95.214844 167.660156 95.789062 165.910156 96.847656 164.398438 C 97.058594 164.097656 97 163.703125 96.695312 163.492188 C 96.394531 163.28125 96 163.339844 95.789062 163.640625 C 94.550781 165.363281 93.917969 167.390625 93.917969 169.503906 C 93.945312 173.101562 95.757812 176.335938 98.84375 178.207031 Z M 98.84375 178.207031 " fill-opacity="1" fill-rule="nonzero"/><path fill="#ffffff" d="M 108.875 189.421875 L 99.324219 189.421875 C 98.964844 189.421875 98.691406 189.722656 98.691406 190.054688 C 98.691406 190.386719 98.992188 190.6875 99.324219 190.6875 L 108.84375 190.6875 C 109.207031 190.6875 109.480469 190.386719 109.480469 190.054688 C 109.480469 189.722656 109.207031 189.421875 108.875 189.421875 Z M 108.875 189.421875 " fill-opacity="1" fill-rule="nonzero"/><path fill="#ffffff" d="M 107.789062 191.988281 L 100.414062 191.988281 C 100.050781 191.988281 99.777344 192.289062 99.777344 192.625 C 99.777344 192.984375 100.082031 193.257812 100.414062 193.257812 L 101.289062 193.257812 C 101.894531 194.195312 102.921875 194.828125 104.128906 194.828125 C 105.308594 194.828125 106.367188 194.195312 106.972656 193.257812 L 107.847656 193.257812 C 108.210938 193.257812 108.480469 192.957031 108.480469 192.625 C 108.453125 192.289062 108.148438 191.988281 107.789062 191.988281 Z M 107.789062 191.988281 " fill-opacity="1" fill-rule="nonzero"/><g clip-path="url(#9843ec15ca)"><path fill="#8cc63f" d="M 104.101562 149.53125 C 102.316406 150.558594 101.140625 152.460938 101.140625 154.667969 C 101.140625 156.875 102.347656 158.777344 104.101562 159.804688 C 105.882812 158.777344 107.0625 156.875 107.0625 154.667969 C 107.0625 152.460938 105.882812 150.558594 104.101562 149.53125 Z M 104.101562 149.53125 " fill-opacity="1" fill-rule="nonzero"/></g><path fill="#8cc63f" d="M 93.582031 157.871094 C 93.886719 159.894531 95.214844 161.738281 97.242188 162.554688 C 99.265625 163.371094 101.5 162.976562 103.101562 161.738281 C 102.800781 159.714844 101.472656 157.871094 99.445312 157.054688 C 97.421875 156.238281 95.183594 156.632812 93.582031 157.871094 Z M 93.582031 157.871094 " fill-opacity="1" fill-rule="nonzero"/><path fill="#8cc63f" d="M 114.617188 157.871094 C 114.316406 159.894531 112.984375 161.738281 110.960938 162.554688 C 108.933594 163.371094 106.699219 162.976562 105.097656 161.738281 C 105.398438 159.714844 106.730469 157.871094 108.753906 157.054688 C 110.777344 156.238281 113.015625 156.632812 114.617188 157.871094 Z M 114.617188 157.871094 " fill-opacity="1" fill-rule="nonzero"/><g clip-path="url(#2a300ae0f6)"><g clip-path="url(#bd578db5be)"><g transform="matrix(1, 0, 0, 1, 11, 51)"><g clip-path="url(#1200487e7d)"><g clip-path="url(#04bc815b33)"><g clip-path="url(#b4315f7416)"><path fill="#010101" d="M 0.0859375 0.804688 L 112.585938 0.804688 L 112.585938 113.304688 L 0.0859375 113.304688 Z M 0.0859375 0.804688 " fill-opacity="1" fill-rule="nonzero"/></g></g></g></g></g></g><g clip-path="url(#35159eee48)"><g clip-path="url(#27801e44ff)"><g clip-path="url(#d0a238f8ec)"><path fill="#ffffff" d="M 99.078125 159.617188 L 103.417969 161.515625 C 97.527344 166.585938 102.609375 179.144531 102.746094 178.925781 C 102.882812 178.707031 98.445312 166.59375 104.390625 161.539062 L 101.386719 160.035156 L 108.566406 156.753906 L 111.523438 164.605469 L 108.164062 163.328125 C 105.332031 164.738281 104.792969 176.890625 105.414062 176.722656 C 105.414062 176.722656 105.878906 165.136719 109.101562 164.019531 L 112.839844 165.585938 L 109.070312 155.703125 Z M 99.078125 159.617188 " fill-opacity="1" fill-rule="nonzero"/></g></g></g></svg>