<svg xmlns="http://www.w3.org/2000/svg" xmlns:xlink="http://www.w3.org/1999/xlink" width="500" zoomAndPan="magnify" viewBox="0 0 375 374.999991" height="500" preserveAspectRatio="xMidYMid meet" version="1.0"><defs><clipPath id="1e63581525"><path d="M 122.054688 113 L 269 113 L 269 255 L 122.054688 255 Z M 122.054688 113 " clip-rule="nonzero"/></clipPath><clipPath id="8889799774"><path d="M 0 0 L 298.738281 0 L 298.738281 129.753906 L 0 129.753906 Z M 0 0 " clip-rule="nonzero"/></clipPath><clipPath id="6a191eef61"><path d="M -281.488281 -467.722656 L 281.488281 -467.722656 C 291.015625 -467.722656 298.738281 -460 298.738281 -450.472656 L 298.738281 112.503906 C 298.738281 122.03125 291.015625 129.753906 281.488281 129.753906 L -281.488281 129.753906 C -291.015625 129.753906 -298.738281 122.03125 -298.738281 112.503906 L -298.738281 -450.472656 C -298.738281 -460 -291.015625 -467.722656 -281.488281 -467.722656 Z M -281.488281 -467.722656 " clip-rule="nonzero"/></clipPath><clipPath id="8f259ac323"><path d="M 0 0 L 298.738281 0 L 298.738281 129.753906 L 0 129.753906 Z M 0 0 " clip-rule="nonzero"/></clipPath><clipPath id="70a75a79d5"><path d="M -281.488281 -467.722656 L 281.488281 -467.722656 C 291.015625 -467.722656 298.738281 -460 298.738281 -450.472656 L 298.738281 112.503906 C 298.738281 122.03125 291.015625 129.753906 281.488281 129.753906 L -281.488281 129.753906 C -291.015625 129.753906 -298.738281 122.03125 -298.738281 112.503906 L -298.738281 -450.472656 C -298.738281 -460 -291.015625 -467.722656 -281.488281 -467.722656 Z M -281.488281 -467.722656 " clip-rule="nonzero"/></clipPath><clipPath id="d7810557a6"><rect x="0" width="299" y="0" height="130"/></clipPath><clipPath id="d063237f75"><path d="M 168 84 L 242 84 L 242 208 L 168 208 Z M 168 84 " clip-rule="nonzero"/></clipPath><clipPath id="3f84462976"><path d="M 132.855469 183.988281 L 185.269531 67.800781 L 257.886719 100.558594 L 205.472656 216.746094 Z M 132.855469 183.988281 " clip-rule="nonzero"/></clipPath><clipPath id="a28780e6a7"><path d="M 132.855469 183.988281 L 185.269531 67.800781 L 257.886719 100.558594 L 205.472656 216.746094 Z M 132.855469 183.988281 " clip-rule="nonzero"/></clipPath><clipPath id="f3fd114b5a"><rect x="0" width="299" y="0" height="293"/></clipPath></defs><rect x="-37.5" width="450" fill="#ffffff" y="-37.499999" height="449.999989" fill-opacity="1"/><rect x="-37.5" width="450" fill="#6b36da" y="-37.499999" height="449.999989" fill-opacity="1"/><g transform="matrix(1, 0, 0, 1, 0, 0)"><g clip-path="url(#f3fd114b5a)"><g clip-path="url(#1e63581525)"><path fill="#ffffff" d="M 255.265625 114.671875 C 254.144531 113.066406 252.058594 112.746094 250.453125 113.871094 C 248.847656 114.992188 248.527344 117.078125 249.648438 118.683594 C 257.515625 129.917969 261.847656 143.238281 261.847656 157.042969 C 261.847656 180.476562 249.808594 201.820312 229.75 213.859375 C 228.785156 214.5 228.144531 215.625 228.144531 216.746094 L 228.144531 235.523438 C 228.144531 242.585938 222.367188 248.203125 215.464844 248.203125 L 175.339844 248.203125 C 168.277344 248.203125 162.660156 242.425781 162.660156 235.523438 L 162.660156 216.746094 C 162.660156 215.464844 162.019531 214.5 161.054688 213.859375 C 140.996094 201.660156 128.957031 180.476562 128.957031 156.882812 C 128.957031 143.078125 133.128906 129.917969 141.15625 118.523438 C 142.277344 116.917969 141.957031 114.832031 140.351562 113.707031 C 138.746094 112.585938 136.660156 112.90625 135.539062 114.511719 C 126.710938 127.03125 122.054688 141.636719 122.054688 156.722656 C 122.054688 181.917969 134.574219 204.871094 155.761719 218.511719 L 155.761719 235.363281 C 155.761719 246.117188 164.585938 254.945312 175.339844 254.945312 L 215.464844 254.945312 C 226.21875 254.945312 235.042969 246.117188 235.042969 235.363281 L 235.042969 218.511719 C 256.230469 204.871094 268.75 181.917969 268.75 156.722656 C 268.589844 141.796875 263.933594 127.03125 255.265625 114.671875 Z M 255.265625 114.671875 " fill-opacity="1" fill-rule="nonzero"/></g><path fill="#ffffff" d="M 221.402344 204.066406 C 222.042969 204.066406 222.6875 203.90625 223.167969 203.585938 C 239.539062 193.636719 249.167969 176.460938 249.167969 157.363281 C 249.167969 146.128906 245.796875 135.375 239.378906 126.226562 C 238.253906 124.621094 236.167969 124.300781 234.5625 125.425781 C 232.957031 126.546875 232.636719 128.636719 233.761719 130.238281 C 239.378906 138.265625 242.425781 147.574219 242.425781 157.363281 C 242.425781 173.894531 233.921875 188.980469 219.636719 197.648438 C 218.03125 198.609375 217.550781 200.699219 218.511719 202.464844 C 219.15625 203.425781 220.277344 204.066406 221.402344 204.066406 Z M 221.402344 204.066406 " fill-opacity="1" fill-rule="nonzero"/><path fill="#ffffff" d="M 167.316406 203.585938 C 167.796875 203.90625 168.4375 204.066406 169.082031 204.066406 C 170.203125 204.066406 171.328125 203.425781 171.96875 202.464844 C 172.933594 200.859375 172.453125 198.773438 170.847656 197.648438 C 156.5625 188.980469 148.054688 173.894531 148.054688 157.363281 C 148.054688 147.574219 151.105469 138.265625 156.722656 130.238281 C 157.847656 128.636719 157.523438 126.546875 155.921875 125.425781 C 154.316406 124.300781 152.230469 124.621094 151.105469 126.226562 C 144.523438 135.375 141.15625 146.128906 141.15625 157.363281 C 141.316406 176.460938 150.945312 193.636719 167.316406 203.585938 Z M 167.316406 203.585938 " fill-opacity="1" fill-rule="nonzero"/><path fill="#ffffff" d="M 220.601562 263.128906 L 169.882812 263.128906 C 167.957031 263.128906 166.511719 264.734375 166.511719 266.5 C 166.511719 268.265625 168.117188 269.871094 169.882812 269.871094 L 220.441406 269.871094 C 222.367188 269.871094 223.808594 268.265625 223.808594 266.5 C 223.808594 264.734375 222.367188 263.128906 220.601562 263.128906 Z M 220.601562 263.128906 " fill-opacity="1" fill-rule="nonzero"/><path fill="#ffffff" d="M 214.820312 276.773438 L 175.660156 276.773438 C 173.734375 276.773438 172.289062 278.378906 172.289062 280.144531 C 172.289062 282.070312 173.894531 283.511719 175.660156 283.511719 L 180.316406 283.511719 C 183.527344 288.488281 188.984375 291.859375 195.402344 291.859375 C 201.660156 291.859375 207.277344 288.488281 210.488281 283.511719 L 215.144531 283.511719 C 217.070312 283.511719 218.511719 281.910156 218.511719 280.144531 C 218.351562 278.378906 216.75 276.773438 214.820312 276.773438 Z M 214.820312 276.773438 " fill-opacity="1" fill-rule="nonzero"/><path fill="#8cc63f" d="M 195.242188 51.277344 C 185.773438 56.734375 179.511719 66.84375 179.511719 78.558594 C 179.511719 90.277344 185.933594 100.386719 195.242188 105.84375 C 204.710938 100.386719 210.96875 90.277344 210.96875 78.558594 C 210.96875 66.84375 204.710938 56.734375 195.242188 51.277344 Z M 195.242188 51.277344 " fill-opacity="1" fill-rule="nonzero"/><path fill="#8cc63f" d="M 139.390625 95.574219 C 140.996094 106.324219 148.054688 116.117188 158.808594 120.449219 C 169.5625 124.78125 181.4375 122.695312 189.945312 116.117188 C 188.339844 105.363281 181.277344 95.574219 170.527344 91.238281 C 159.773438 86.90625 147.894531 88.992188 139.390625 95.574219 Z M 139.390625 95.574219 " fill-opacity="1" fill-rule="nonzero"/><path fill="#8cc63f" d="M 251.09375 95.574219 C 249.488281 106.324219 242.425781 116.117188 231.675781 120.449219 C 220.921875 124.78125 209.042969 122.695312 200.539062 116.117188 C 202.144531 105.363281 209.203125 95.574219 219.957031 91.238281 C 230.710938 86.90625 242.589844 88.992188 251.09375 95.574219 Z M 251.09375 95.574219 " fill-opacity="1" fill-rule="nonzero"/><g clip-path="url(#8889799774)"><g clip-path="url(#6a191eef61)"><g transform="matrix(1, 0, 0, 1, 0, 0)"><g clip-path="url(#d7810557a6)"><g clip-path="url(#8f259ac323)"><g clip-path="url(#70a75a79d5)"><path fill="#6b36da" d="M -298.738281 -467.722656 L 298.738281 -467.722656 L 298.738281 129.753906 L -298.738281 129.753906 Z M -298.738281 -467.722656 " fill-opacity="1" fill-rule="nonzero"/></g></g></g></g></g></g><g clip-path="url(#d063237f75)"><g clip-path="url(#3f84462976)"><g clip-path="url(#a28780e6a7)"><path fill="#ffffff" d="M 168.5625 104.84375 L 191.617188 114.929688 C 160.324219 141.851562 187.332031 208.558594 188.050781 207.394531 C 188.773438 206.234375 165.203125 141.898438 196.78125 115.046875 L 180.832031 107.0625 L 218.953125 89.652344 L 234.671875 131.347656 L 216.824219 124.5625 C 201.785156 132.046875 198.921875 196.59375 202.226562 195.703125 C 202.226562 195.703125 204.699219 134.167969 221.804688 128.230469 L 241.648438 136.550781 L 221.628906 84.0625 Z M 168.5625 104.84375 " fill-opacity="1" fill-rule="nonzero"/></g></g></g></g></g></svg>