<svg width="80" height="80" viewBox="0 0 80 80" xmlns="http://www.w3.org/2000/svg">
  <!-- Background circle -->
  <circle cx="40" cy="40" r="40" fill="#F8FAFC"/>
  
  <!-- Head -->
  <circle cx="40" cy="30" r="14" fill="#FED7AA" stroke="#FDBA74" stroke-width="1"/>
  
  <!-- Hair -->
  <path d="M26 22 Q40 18 54 22 Q54 28 40 24 Q26 28 26 22" fill="#374151" stroke="#1F2937" stroke-width="0.5"/>
  
  <!-- Eyes -->
  <circle cx="36" cy="28" r="1.5" fill="#1F2937"/>
  <circle cx="44" cy="28" r="1.5" fill="#1F2937"/>
  
  <!-- Eyebrows -->
  <path d="M32 25 Q36 24 40 25" stroke="#374151" stroke-width="1" fill="none"/>
  <path d="M40 25 Q44 24 48 25" stroke="#374151" stroke-width="1" fill="none"/>
  
  <!-- Nose -->
  <ellipse cx="40" cy="31" rx="1" ry="1.5" fill="#FBBF24"/>
  
  <!-- Mouth -->
  <path d="M36 35 Q40 37 44 35" stroke="#DC2626" stroke-width="1.5" fill="none" stroke-linecap="round"/>
  
  <!-- Body -->
  <rect x="34" y="44" width="12" height="18" rx="6" fill="#EA580C" stroke="#DC2626" stroke-width="1"/>
  
  <!-- Arms -->
  <rect x="30" y="48" width="3" height="10" rx="1.5" fill="#FED7AA" stroke="#FDBA74" stroke-width="0.5"/>
  <rect x="47" y="48" width="3" height="10" rx="1.5" fill="#FED7AA" stroke="#FDBA74" stroke-width="0.5"/>
  
  <!-- Legs -->
  <rect x="36" y="62" width="4" height="10" rx="2" fill="#C2410C" stroke="#9A3412" stroke-width="0.5"/>
  <rect x="40" y="62" width="4" height="10" rx="2" fill="#C2410C" stroke="#9A3412" stroke-width="0.5"/>
  
  <!-- Phone -->
  <rect x="25" y="52" width="4" height="7" rx="0.5" fill="#374151" stroke="#1F2937" stroke-width="0.5"/>
  <rect x="26" y="53" width="2" height="5" rx="0.25" fill="#6B7280"/>
  
  <!-- Wallet -->
  <rect x="50" y="56" width="6" height="4" rx="0.5" fill="#10B981" stroke="#059669" stroke-width="0.5"/>
  <rect x="51" y="57" width="4" height="2" rx="0.25" fill="#34D399" stroke="#10B981" stroke-width="0.5"/>
</svg>